<svg width="448" height="512" viewBox="0 0 448 512" fill="none" xmlns="http://www.w3.org/2000/svg">
<g clip-path="url(#clip0_531_4)">
<path d="M9.3999 233.4C-3.1001 245.9 -3.1001 266.2 9.3999 278.7L169.4 438.7C181.9 451.2 202.2 451.2 214.7 438.7C227.2 426.2 227.2 405.9 214.7 393.4L109.2 288H416C433.7 288 448 273.7 448 256C448 238.3 433.7 224 416 224H109.3L214.6 118.6C227.1 106.1 227.1 85.8 214.6 73.3C202.1 60.8 181.8 60.8 169.3 73.3L9.2999 233.3L9.3999 233.4Z" fill="white"/>
</g>
<defs>
<clipPath id="clip0_531_4">
<rect width="448" height="512" fill="white"/>
</clipPath>
</defs>
</svg>
