<svg width="60" height="60" viewBox="0 0 60 60" fill="none" xmlns="http://www.w3.org/2000/svg">
<rect width="60" height="60" rx="10" fill="#FFD055" fill-opacity="0.1"/>
<path d="M13 45.25C13 47.3203 14.6797 49 16.75 49H44.25C46.3203 49 48 47.3203 48 45.25V24H13V45.25ZM38 29.9375C38 29.4219 38.4219 29 38.9375 29H42.0625C42.5781 29 43 29.4219 43 29.9375V33.0625C43 33.5781 42.5781 34 42.0625 34H38.9375C38.4219 34 38 33.5781 38 33.0625V29.9375ZM38 39.9375C38 39.4219 38.4219 39 38.9375 39H42.0625C42.5781 39 43 39.4219 43 39.9375V43.0625C43 43.5781 42.5781 44 42.0625 44H38.9375C38.4219 44 38 43.5781 38 43.0625V39.9375ZM28 29.9375C28 29.4219 28.4219 29 28.9375 29H32.0625C32.5781 29 33 29.4219 33 29.9375V33.0625C33 33.5781 32.5781 34 32.0625 34H28.9375C28.4219 34 28 33.5781 28 33.0625V29.9375ZM28 39.9375C28 39.4219 28.4219 39 28.9375 39H32.0625C32.5781 39 33 39.4219 33 39.9375V43.0625C33 43.5781 32.5781 44 32.0625 44H28.9375C28.4219 44 28 43.5781 28 43.0625V39.9375ZM18 29.9375C18 29.4219 18.4219 29 18.9375 29H22.0625C22.5781 29 23 29.4219 23 29.9375V33.0625C23 33.5781 22.5781 34 22.0625 34H18.9375C18.4219 34 18 33.5781 18 33.0625V29.9375ZM18 39.9375C18 39.4219 18.4219 39 18.9375 39H22.0625C22.5781 39 23 39.4219 23 39.9375V43.0625C23 43.5781 22.5781 44 22.0625 44H18.9375C18.4219 44 18 43.5781 18 43.0625V39.9375ZM44.25 14H40.5V10.25C40.5 9.5625 39.9375 9 39.25 9H36.75C36.0625 9 35.5 9.5625 35.5 10.25V14H25.5V10.25C25.5 9.5625 24.9375 9 24.25 9H21.75C21.0625 9 20.5 9.5625 20.5 10.25V14H16.75C14.6797 14 13 15.6797 13 17.75V21.5H48V17.75C48 15.6797 46.3203 14 44.25 14Z" fill="#FFD055"/>
</svg>
