<svg width="82" height="104" viewBox="0 0 82 104" fill="none" xmlns="http://www.w3.org/2000/svg">
<path d="M58.4441 83.9618C40.0764 83.9618 25.1891 69.1767 25.1891 50.9391C25.1891 32.7015 40.0764 17.9194 58.4441 17.9194C67.3185 17.9194 75.3793 21.3719 81.3434 26.9962C74.7972 20.0311 65.4321 15.6697 55.0338 15.6697C35.243 15.6697 19.1976 31.4626 19.1976 50.9421C19.1976 70.4216 35.243 86.2145 55.0338 86.2145C65.4351 86.2145 74.7972 81.8531 81.3434 74.888C75.3793 80.5123 67.3185 83.9618 58.4441 83.9618Z" fill="white"/>
<path d="M60.6138 0.290763L47.232 5.55808C47.232 5.55808 44.5562 22.9828 31.1744 10.6244C31.1744 10.6244 30.9337 10.0845 28.1878 11.8753L23.1776 15.3548C23.1776 15.3548 31.4457 32.3746 11.8194 28.0522C11.8194 28.0522 9.21069 33.3885 8.18366 36.0221C8.18366 36.0221 8.04652 36.631 9.35088 37.4409C9.35088 37.4409 15.8696 41.0195 14.7024 45.7499C14.7024 45.7499 15.4582 50.4113 5.43781 53.4499C5.43781 53.4499 5.89495 60.43 6.53493 62.4997C6.53493 62.4997 16.7839 61.4198 18.6124 67.452C18.6124 67.452 19.8009 71.7745 16.9667 74.6571L14.3123 78.5296C14.3123 78.5296 17.0581 82.6721 19.7095 85.1048L25.2957 82.4921C25.2957 82.4921 30.1443 79.8794 33.4388 83.302C36.0337 85.9979 35.904 87.5194 35.7766 89.013C35.7422 89.4156 35.7081 89.8161 35.7275 90.2371L35.8189 95.3694C35.8189 95.3694 37.9004 96.3713 41.6397 97.0132C41.6397 97.0132 43.9041 97.7211 45.2419 97.0132L51.9679 94.1756L46.8206 103.225C46.8206 103.225 36.596 101.471 30.3516 98.834L30.2815 88.0954C30.2815 88.0954 30.1443 85.5967 26.9871 87.4864L19.1945 91.6739C19.1945 91.6739 13.9496 88.0954 7.49796 78.8416L12.7824 71.0066C12.7824 71.0066 14.9797 68.103 10.3109 68.034L2.49083 67.431C2.49083 67.431 -0.25502 59.3261 0.0192604 50.1413L7.77224 46.8327C7.77224 46.8327 11.5451 45.4139 7.56501 42.9152L1.59789 38.3858C1.59789 38.3858 4.61802 28.2531 9.21374 22.4459L16.8296 23.4598C16.8296 23.4598 20.252 24.6086 19.1945 20.9611L16.7625 13.531C16.7625 13.531 25.6157 6.23599 31.9973 3.8723L37.4859 8.73467C37.4859 8.73467 40.0946 11.5723 40.8474 7.78979L42.426 0.563728C42.4291 0.560728 51.465 -0.495135 60.6138 0.290763Z" fill="white"/>
<path d="M60.6138 0.290763L47.232 5.55808C47.232 5.55808 44.5562 22.9828 31.1744 10.6244C31.1744 10.6244 30.9337 10.0845 28.1878 11.8753L23.1776 15.3548C23.1776 15.3548 31.4457 32.3746 11.8194 28.0522C11.8194 28.0522 9.21069 33.3885 8.18366 36.0221C8.18366 36.0221 8.04652 36.631 9.35088 37.4409C9.35088 37.4409 15.8696 41.0195 14.7024 45.7499C14.7024 45.7499 15.4582 50.4113 5.43781 53.4499C5.43781 53.4499 5.89495 60.43 6.53493 62.4997C6.53493 62.4997 16.7839 61.4198 18.6124 67.452C18.6124 67.452 19.8009 71.7745 16.9667 74.6571L14.3123 78.5296C14.3123 78.5296 17.0581 82.6721 19.7095 85.1048L25.2957 82.4921C25.2957 82.4921 30.1443 79.8794 33.4388 83.302C36.0337 85.9979 35.904 87.5194 35.7766 89.013C35.7422 89.4156 35.7081 89.8161 35.7275 90.2371L35.8189 95.3694C35.8189 95.3694 37.9004 96.3713 41.6397 97.0132C41.6397 97.0132 43.9041 97.7211 45.2419 97.0132L51.9679 94.1756L46.8206 103.225C46.8206 103.225 36.596 101.471 30.3516 98.834L30.2815 88.0954C30.2815 88.0954 30.1443 85.5967 26.9871 87.4864L19.1945 91.6739C19.1945 91.6739 13.9496 88.0954 7.49796 78.8416L12.7824 71.0066C12.7824 71.0066 14.9797 68.103 10.3109 68.034L2.49083 67.431C2.49083 67.431 -0.25502 59.3261 0.0192604 50.1413L7.77224 46.8327C7.77224 46.8327 11.5451 45.4139 7.56501 42.9152L1.59789 38.3858C1.59789 38.3858 4.61802 28.2531 9.21374 22.4459L16.8296 23.4598C16.8296 23.4598 20.252 24.6086 19.1945 20.9611L16.7625 13.531C16.7625 13.531 25.6157 6.23599 31.9973 3.8723L37.4859 8.73467C37.4859 8.73467 40.0946 11.5723 40.8474 7.78979L42.426 0.563728C42.4291 0.560728 51.465 -0.495135 60.6138 0.290763Z" stroke="#0C1C32"/>
<path d="M55.2119 35.0392C55.2666 35.3604 56.3125 41.4991 56.3125 43.8438C56.3125 47.419 54.4121 49.9688 51.6025 50.9942L52.4843 67.2705C52.5322 68.207 51.7871 69 50.8437 69H46.4687C45.5322 69 44.7803 68.2139 44.8281 67.2705L45.7099 50.9942C42.8935 49.9688 41 47.4122 41 43.8438C41 41.4923 42.0459 35.3604 42.1006 35.0392C42.3193 33.6515 45.1973 33.631 45.375 35.1144V44.7667C45.4639 44.9991 46.4072 44.9854 46.4687 44.7667C46.5644 43.0372 47.0088 35.2511 47.0156 35.0733C47.2412 33.6515 50.0713 33.6515 50.29 35.0733C50.3037 35.2579 50.7412 43.0372 50.8369 44.7667C50.8984 44.9854 51.8486 44.9991 51.9306 44.7667V35.1144C52.1084 33.6378 54.9931 33.6515 55.2119 35.0392ZM63.3603 54.5694L62.3349 67.2227C62.2529 68.1797 63.0117 69 63.9687 69H67.7968C68.706 69 69.4374 68.2686 69.4374 67.3594V35.6407C69.4374 34.7384 68.706 34.0001 67.7968 34.0001C62.1572 34.0001 52.6621 46.2022 63.3603 54.5694Z" fill="white"/>
</svg>
