<svg width="82" height="104" viewBox="0 0 82 104" fill="none" xmlns="http://www.w3.org/2000/svg">
<path d="M58.4441 83.9618C40.0764 83.9618 25.1891 69.1767 25.1891 50.9391C25.1891 32.7015 40.0764 17.9194 58.4441 17.9194C67.3185 17.9194 75.3793 21.3719 81.3434 26.9962C74.7972 20.0311 65.4321 15.6697 55.0338 15.6697C35.243 15.6697 19.1976 31.4626 19.1976 50.9421C19.1976 70.4216 35.243 86.2145 55.0338 86.2145C65.4351 86.2145 74.7972 81.8531 81.3434 74.888C75.3793 80.5123 67.3185 83.9618 58.4441 83.9618Z" fill="white"/>
<path d="M60.6138 0.290763L47.232 5.55808C47.232 5.55808 44.5562 22.9828 31.1744 10.6244C31.1744 10.6244 30.9337 10.0845 28.1878 11.8753L23.1776 15.3548C23.1776 15.3548 31.4457 32.3746 11.8194 28.0522C11.8194 28.0522 9.21069 33.3885 8.18366 36.0221C8.18366 36.0221 8.04652 36.631 9.35088 37.4409C9.35088 37.4409 15.8696 41.0195 14.7024 45.7499C14.7024 45.7499 15.4582 50.4113 5.43781 53.4499C5.43781 53.4499 5.89495 60.43 6.53493 62.4997C6.53493 62.4997 16.7839 61.4198 18.6124 67.452C18.6124 67.452 19.8009 71.7745 16.9667 74.6571L14.3123 78.5296C14.3123 78.5296 17.0581 82.6721 19.7095 85.1048L25.2957 82.4921C25.2957 82.4921 30.1443 79.8794 33.4388 83.302C36.0337 85.9979 35.904 87.5194 35.7766 89.013C35.7422 89.4156 35.7081 89.8161 35.7275 90.2371L35.8189 95.3694C35.8189 95.3694 37.9004 96.3713 41.6397 97.0132C41.6397 97.0132 43.9041 97.7211 45.2419 97.0132L51.9679 94.1756L46.8206 103.225C46.8206 103.225 36.596 101.471 30.3516 98.834L30.2815 88.0954C30.2815 88.0954 30.1443 85.5967 26.9871 87.4864L19.1945 91.6739C19.1945 91.6739 13.9496 88.0954 7.49796 78.8416L12.7824 71.0066C12.7824 71.0066 14.9797 68.103 10.3109 68.034L2.49083 67.431C2.49083 67.431 -0.25502 59.3261 0.0192604 50.1413L7.77224 46.8327C7.77224 46.8327 11.5451 45.4139 7.56501 42.9152L1.59789 38.3858C1.59789 38.3858 4.61802 28.2531 9.21374 22.4459L16.8296 23.4598C16.8296 23.4598 20.252 24.6086 19.1945 20.9611L16.7625 13.531C16.7625 13.531 25.6157 6.23599 31.9973 3.8723L37.4859 8.73467C37.4859 8.73467 40.0946 11.5723 40.8474 7.78979L42.426 0.563728C42.4291 0.560728 51.465 -0.495135 60.6138 0.290763Z" fill="white"/>
<path d="M60.6138 0.290763L47.232 5.55808C47.232 5.55808 44.5562 22.9828 31.1744 10.6244C31.1744 10.6244 30.9337 10.0845 28.1878 11.8753L23.1776 15.3548C23.1776 15.3548 31.4457 32.3746 11.8194 28.0522C11.8194 28.0522 9.21069 33.3885 8.18366 36.0221C8.18366 36.0221 8.04652 36.631 9.35088 37.4409C9.35088 37.4409 15.8696 41.0195 14.7024 45.7499C14.7024 45.7499 15.4582 50.4113 5.43781 53.4499C5.43781 53.4499 5.89495 60.43 6.53493 62.4997C6.53493 62.4997 16.7839 61.4198 18.6124 67.452C18.6124 67.452 19.8009 71.7745 16.9667 74.6571L14.3123 78.5296C14.3123 78.5296 17.0581 82.6721 19.7095 85.1048L25.2957 82.4921C25.2957 82.4921 30.1443 79.8794 33.4388 83.302C36.0337 85.9979 35.904 87.5194 35.7766 89.013C35.7422 89.4156 35.7081 89.8161 35.7275 90.2371L35.8189 95.3694C35.8189 95.3694 37.9004 96.3713 41.6397 97.0132C41.6397 97.0132 43.9041 97.7211 45.2419 97.0132L51.9679 94.1756L46.8206 103.225C46.8206 103.225 36.596 101.471 30.3516 98.834L30.2815 88.0954C30.2815 88.0954 30.1443 85.5967 26.9871 87.4864L19.1945 91.6739C19.1945 91.6739 13.9496 88.0954 7.49796 78.8416L12.7824 71.0066C12.7824 71.0066 14.9797 68.103 10.3109 68.034L2.49083 67.431C2.49083 67.431 -0.25502 59.3261 0.0192604 50.1413L7.77224 46.8327C7.77224 46.8327 11.5451 45.4139 7.56501 42.9152L1.59789 38.3858C1.59789 38.3858 4.61802 28.2531 9.21374 22.4459L16.8296 23.4598C16.8296 23.4598 20.252 24.6086 19.1945 20.9611L16.7625 13.531C16.7625 13.531 25.6157 6.23599 31.9973 3.8723L37.4859 8.73467C37.4859 8.73467 40.0946 11.5723 40.8474 7.78979L42.426 0.563728C42.4291 0.560728 51.465 -0.495135 60.6138 0.290763Z" stroke="#0C1C32"/>
<path d="M79.1526 40.5967L65.843 34C64.469 35.9004 61.427 37.2266 57.8791 37.2266C54.3313 37.2266 51.2893 35.9004 49.9153 34L36.6057 40.5967C36.0656 40.8701 35.8469 41.5264 36.1135 42.0664L40.0236 49.8936C40.2971 50.4336 40.9533 50.6523 41.4934 50.3857L45.3625 48.4922C46.0871 48.1367 46.9348 48.6631 46.9348 49.4766V66.8125C46.9348 68.0225 47.9123 69 49.1223 69H66.6223C67.8322 69 68.8098 68.0225 68.8098 66.8125V49.4697C68.8098 48.6631 69.6574 48.1299 70.382 48.4854L74.2512 50.3789C74.7912 50.6523 75.4475 50.4336 75.7209 49.8867L79.6379 42.0664C79.9114 41.5264 79.6926 40.8633 79.1526 40.5967Z" fill="white"/>
</svg>
