<svg width="60" height="60" viewBox="0 0 60 60" fill="none" xmlns="http://www.w3.org/2000/svg">
<rect width="60" height="60" rx="10" fill="#FFD055" fill-opacity="0.1"/>
<path d="M28.4584 49.193C17.107 32.7368 15 31.0479 15 25C15 16.7157 21.7157 10 30 10C38.2843 10 45 16.7157 45 25C45 31.0479 42.893 32.7368 31.5416 49.193C30.7966 50.2691 29.2033 50.269 28.4584 49.193ZM30 31.25C33.4518 31.25 36.25 28.4518 36.25 25C36.25 21.5482 33.4518 18.75 30 18.75C26.5482 18.75 23.75 21.5482 23.75 25C23.75 28.4518 26.5482 31.25 30 31.25Z" fill="#FFD055"/>
</svg>
