<svg width="183" height="60" viewBox="0 0 183 60" fill="none" xmlns="http://www.w3.org/2000/svg">
<g clip-path="url(#clip0_2_108)">
<path d="M33.5864 48.8139C44.148 48.8139 52.7099 40.0971 52.7099 29.3445C52.7099 18.5918 44.148 9.87506 33.5864 9.87506C23.0249 9.87506 14.463 18.5918 14.463 29.3445C14.463 40.0971 23.0249 48.8139 33.5864 48.8139Z" fill="#DA6827"/>
<path d="M32.9842 19.4729C34.8664 19.4729 36.3922 17.971 36.3922 16.1184C36.3922 14.2658 34.8664 12.764 32.9842 12.764C31.102 12.764 29.5761 14.2658 29.5761 16.1184C29.5761 17.971 31.102 19.4729 32.9842 19.4729Z" fill="white"/>
<path d="M21.97 29.5275L28.655 22.8971L32.4935 26.4363L37.4161 21.8353L45.6953 29.1422L35.5703 34.8556C35.5686 34.8538 25.5109 29.3689 21.97 29.5275Z" fill="#0C1C32"/>
<path d="M22.7334 26.0789V27.784L20.8965 30L14.711 31.1455L14.75 29.0672L18.2324 25.7041L20.0534 27.8398L22.7334 26.0789Z" fill="#A34624"/>
<path d="M44.3332 26.8391L52.0244 24.1594C52.4885 25.9743 52.7524 27.6324 52.7294 28.8423L46.0851 29.0795L44.3332 26.8391Z" fill="#275262"/>
<path d="M45.9221 28.1083C45.9221 28.1083 47.2825 26.7536 52.5469 26.792" stroke="white" stroke-miterlimit="10"/>
<path d="M44.2287 27.0919C44.2287 27.0919 46.2817 25.052 52.0651 24.3163" stroke="white" stroke-miterlimit="10"/>
<path d="M20.4749 29.5275L28.8516 21.5581L32.4634 24.93L37.4143 20.3934L47.1496 29.2207L45.961 29.4351L37.4143 21.8353L30.8125 28.0055L28.779 28.4134L31.6433 25.7581L28.655 22.8971L21.97 29.5275H20.4749Z" fill="white"/>
<path d="M37.2885 24.4697H36.0752V25.8941H37.2885V24.4697Z" fill="white"/>
<path d="M37.2885 26.0789H36.0752V27.5033H37.2885V26.0789Z" fill="white"/>
<path d="M38.7676 26.0789H37.5543V27.5033H38.7676V26.0789Z" fill="white"/>
<path d="M38.7676 24.4697H37.5543V25.8941H38.7676V24.4697Z" fill="white"/>
<path d="M28.4779 25.1828H27.6843V25.8959H28.4779V25.1828Z" fill="white"/>
<path d="M29.4663 25.1828H28.6727V25.8959H29.4663V25.1828Z" fill="white"/>
<path d="M28.4779 26.0789H27.6843V26.792H28.4779V26.0789Z" fill="white"/>
<path d="M29.4663 26.0789H28.6727V26.792H29.4663V26.0789Z" fill="white"/>
<path d="M29.5513 21.6662L32.3855 24.3163L36.4171 20.9758L32.3075 22.7541L29.5513 21.6662Z" fill="white"/>
<path d="M23.9432 26.2289V23.5962L24.9122 23.9031V25.3066L23.9432 26.2289Z" fill="white"/>
<path d="M23.9433 23.0749V23.5195L22.7334 24.2396V23.7967L23.9433 23.0749Z" fill="white"/>
<path d="M23.9432 22.646V23.0749L25.2859 23.5962V23.2911L23.9432 22.646Z" fill="white"/>
<path d="M14.463 29.3445L18.2324 25.7041L20.0534 27.8398L22.7334 25.7041" stroke="white" stroke-miterlimit="10"/>
<path d="M14.75 31.6685C14.75 31.6685 36.1567 24.8951 40.7409 47.2726C40.7409 47.2744 19.0596 58.1711 14.75 31.6685Z" fill="#0C1C32"/>
<path d="M36.3763 35.6715C36.3763 35.6715 41.4725 29.0097 51.826 29.6792C51.826 29.6792 53.2572 39.427 41.4725 46.8437C41.4707 46.8437 40.8454 40.5637 36.3763 35.6715Z" fill="#0C1C32"/>
<path d="M38.6295 48.2403C38.6295 48.2403 31.0233 39.3642 15.3859 33.2376C15.3859 33.2376 26.3169 35.1049 40.5142 46.6868L41.5398 47.2726C41.538 47.2744 40.3105 47.9073 38.6295 48.2403Z" fill="white"/>
<path d="M36.4436 43.5573C36.4436 43.5573 36.5641 40.9142 34.2861 36.824C34.2861 36.824 36.4667 39.0068 37.4834 44.3227L36.4436 43.5573Z" fill="white"/>
<path d="M31.8859 40.487C31.8859 40.487 32.1623 37.2354 30.15 34.1355C30.15 34.1355 32.3164 36.1911 32.8832 41.1216L31.8859 40.487Z" fill="white"/>
<path d="M27.3123 37.8526C27.3123 37.8526 27.3407 35.3664 25.0255 32.3398C25.0255 32.3398 27.5692 34.6289 28.4619 38.4716L27.3123 37.8526Z" fill="white"/>
<path d="M22.682 35.6436C22.682 35.6436 22.0267 33.5741 20.0534 32.08C20.0534 32.08 22.1276 33.133 23.387 35.9505L22.682 35.6436Z" fill="white"/>
<path d="M22.5439 36.4788C22.5439 36.4788 20.6237 36.5607 18.2324 37.3453C18.2324 37.3453 20.4997 36.5398 23.5606 37.0158L22.5439 36.4788Z" fill="white"/>
<path d="M28.0209 39.6327C28.0209 39.6327 23.9627 39.6275 20.0534 40.9351L24.0371 40.2848C24.0371 40.2848 27.3035 40.1401 29.6186 40.5759L28.0209 39.6327Z" fill="white"/>
<path d="M33.1755 43.2731C33.1755 43.2731 28.3946 43.0621 23.5589 44.5946C23.5589 44.5946 28.5859 43.1528 34.4721 44.3226L33.1755 43.2731Z" fill="white"/>
<path d="M40.5124 46.6868C40.5124 46.6868 40.3618 39.9064 32.8832 34.1338C25.4046 28.3611 14.75 31.6685 14.75 31.6685L14.6596 30.4917C14.6596 30.4917 24.4941 26.9594 33.6608 33.2359C33.6608 33.2359 41.2723 38.4995 41.538 47.2726" fill="white"/>
<path d="M36.3763 35.6715C36.3763 35.6715 41.8427 28.6418 52.887 29.7629V28.8284C52.887 28.8284 43.7203 26.8321 35.5686 34.8538L36.3763 35.6715Z" fill="white"/>
<path d="M41.2758 46.8141C41.2758 46.8141 51.9004 41.5139 51.8242 29.6792C51.8242 29.6792 51.9004 29.5397 52.887 29.7629C52.887 29.7629 53.4839 41.2175 41.7789 47.7067" fill="white"/>
<path d="M39.3823 39.7425C39.3823 39.7425 44.1578 34.7318 51.1032 31.1454C51.1032 31.1454 44.3845 35.2391 40.0571 40.7398L39.3823 39.7425Z" fill="white"/>
<path d="M45.9221 34.2907C45.9221 34.2907 46.5102 31.8551 47.5358 31.0705C47.5358 31.0705 46.4818 32.1061 46.4305 33.942L45.9221 34.2907Z" fill="white"/>
<path d="M46.3809 34.5261C46.3809 34.5261 48.1292 34.2384 49.6614 34.4337C49.6614 34.4337 46.9477 34.4145 45.6953 35.0875L46.3809 34.5261Z" fill="white"/>
<path d="M42.9445 37.5545C42.9445 37.5545 45.0488 36.8606 48.8643 37.2912C48.8643 37.2912 45.3818 37.1343 42.0092 38.5012L42.9445 37.5545Z" fill="white"/>
<path d="M43.4262 36.1492C43.4262 36.1492 43.2456 33.3858 44.1365 32.0591C44.1365 32.0591 42.7868 33.9995 42.7319 36.7089L43.4262 36.1492Z" fill="white"/>
<path d="M40.484 38.6703C40.484 38.6703 40.1333 35.2165 40.7409 34.1146C40.7409 34.1146 39.834 35.5948 39.8889 39.2352L40.484 38.6703Z" fill="white"/>
<path d="M40.0571 40.7381C40.0571 40.7381 44.156 39.9605 46.5863 40.4103C46.5863 40.4103 42.4857 40.4277 40.2378 41.4738L39.3823 39.7408L40.0571 40.7381Z" fill="white"/>
<path d="M33.969 48.8016C23.2932 48.8016 14.6401 40.208 14.6401 29.6077C14.6401 19.0074 23.2932 10.4155 33.969 10.4155C39.1272 10.4155 43.8124 12.4223 47.2789 15.6913C43.4741 11.6429 38.0307 9.10791 31.9869 9.10791C20.4838 9.10791 11.1577 18.2873 11.1577 29.6094C11.1577 40.9316 20.4838 50.111 31.9869 50.111C38.0325 50.111 43.4741 47.576 47.2789 43.5276C43.8124 46.7966 39.1272 48.8016 33.969 48.8016Z" fill="white"/>
<path d="M35.23 0.169154L27.4521 3.2307C27.4521 3.2307 25.8968 13.3586 18.1188 6.17543C18.1188 6.17543 17.9789 5.8616 16.3829 6.90246L13.4708 8.92489C13.4708 8.92489 18.2765 18.8174 6.86904 16.305C6.86904 16.305 5.35277 19.4067 4.75583 20.9374C4.75583 20.9374 4.67612 21.2914 5.43426 21.7621C5.43426 21.7621 9.22316 23.8421 8.54473 26.5915C8.54473 26.5915 8.98403 29.3009 3.15985 31.067C3.15985 31.067 3.42555 35.1241 3.79753 36.3271C3.79753 36.3271 9.75456 35.6995 10.8174 39.2056C10.8174 39.2056 11.5082 41.7179 9.86084 43.3934L8.318 45.6442C8.318 45.6442 9.91398 48.052 11.4551 49.4659L14.7019 47.9474C14.7019 47.9474 17.5201 46.4288 19.435 48.4181C20.9432 49.9851 20.8678 50.8694 20.7938 51.7376C20.7738 51.9715 20.754 52.2044 20.7652 52.449L20.8184 55.4321C20.8184 55.4321 22.0282 56.0144 24.2016 56.3875C24.2016 56.3875 25.5177 56.799 26.2954 56.3875L30.2047 54.7382L27.2129 59.9983C27.2129 59.9983 21.2701 58.9783 17.6406 57.4458L17.5998 51.2042C17.5998 51.2042 17.5201 49.7519 15.685 50.8503L11.1557 53.2842C11.1557 53.2842 8.10721 51.2042 4.35728 45.8256L7.42879 41.2716C7.42879 41.2716 8.70593 39.5839 5.99223 39.5438L1.44696 39.1934C1.44696 39.1934 -0.14902 34.4825 0.0104013 29.144L4.5167 27.2209C4.5167 27.2209 6.70962 26.3963 4.39625 24.944L0.927957 22.3113C0.927957 22.3113 2.68336 16.4218 5.35454 13.0465L9.78113 13.6358C9.78113 13.6358 11.7704 14.3035 11.1557 12.1834L9.74216 7.86486C9.74216 7.86486 14.8879 3.62472 18.5971 2.25086L21.7873 5.07704C21.7873 5.07704 23.3036 6.72637 23.7411 4.52784L24.6586 0.32781C24.6604 0.326067 29.9125 -0.287637 35.23 0.169154Z" fill="white"/>
<path d="M35.23 0.169154L27.4521 3.2307C27.4521 3.2307 25.8968 13.3586 18.1188 6.17543C18.1188 6.17543 17.9789 5.8616 16.3829 6.90246L13.4708 8.92489C13.4708 8.92489 18.2765 18.8174 6.86904 16.305C6.86904 16.305 5.35277 19.4067 4.75583 20.9374C4.75583 20.9374 4.67612 21.2914 5.43426 21.7621C5.43426 21.7621 9.22316 23.8421 8.54473 26.5915C8.54473 26.5915 8.98403 29.3009 3.15985 31.067C3.15985 31.067 3.42555 35.1241 3.79753 36.3271C3.79753 36.3271 9.75456 35.6995 10.8174 39.2056C10.8174 39.2056 11.5082 41.7179 9.86084 43.3934L8.318 45.6442C8.318 45.6442 9.91398 48.052 11.4551 49.4659L14.7019 47.9474C14.7019 47.9474 17.5201 46.4288 19.435 48.4181C20.9432 49.9851 20.8678 50.8694 20.7938 51.7376C20.7738 51.9715 20.754 52.2044 20.7652 52.449L20.8184 55.4321C20.8184 55.4321 22.0282 56.0144 24.2016 56.3875C24.2016 56.3875 25.5177 56.799 26.2954 56.3875L30.2047 54.7382L27.2129 59.9983C27.2129 59.9983 21.2701 58.9783 17.6406 57.4458L17.5998 51.2042C17.5998 51.2042 17.5201 49.7519 15.685 50.8503L11.1557 53.2842C11.1557 53.2842 8.10721 51.2042 4.35728 45.8256L7.42879 41.2716C7.42879 41.2716 8.70593 39.5839 5.99223 39.5438L1.44696 39.1934C1.44696 39.1934 -0.14902 34.4825 0.0104013 29.144L4.5167 27.2209C4.5167 27.2209 6.70962 26.3963 4.39625 24.944L0.927957 22.3113C0.927957 22.3113 2.68336 16.4218 5.35454 13.0465L9.78113 13.6358C9.78113 13.6358 11.7704 14.3035 11.1557 12.1834L9.74216 7.86486C9.74216 7.86486 14.8879 3.62472 18.5971 2.25086L21.7873 5.07704C21.7873 5.07704 23.3036 6.72637 23.7411 4.52784L24.6586 0.32781C24.6604 0.326067 29.9125 -0.287637 35.23 0.169154Z" stroke="#0C1C32"/>
</g>
<path d="M71.24 33H75.02L68.88 25.24L74.68 19H71.08L64.88 25.54V19H61.66V33H64.88V29.46L66.76 27.5L71.24 33ZM86.2997 33H89.6997L83.4397 19H80.2397L73.9997 33H77.3197L78.5597 30H85.0597L86.2997 33ZM79.5997 27.54L81.8197 22.18L84.0397 27.54H79.5997ZM91.1522 33H101.412V30.36H94.3922V19H91.1522V33ZM103.223 33H106.463V19H103.223V33ZM125.565 33L125.525 19H122.865L117.705 27.7L112.465 19H109.785V33H112.825V24.78L116.925 31.52H118.385L122.505 24.6L122.525 33H125.565ZM139.347 33H142.747L136.487 19H133.287L127.047 33H130.367L131.607 30H138.107L139.347 33ZM132.647 27.54L134.867 22.18L137.087 27.54H132.647ZM148.799 33.24C152.799 33.24 154.739 31.24 154.739 28.9C154.739 23.76 146.599 25.54 146.599 22.96C146.599 22.08 147.339 21.36 149.259 21.36C150.499 21.36 151.839 21.72 153.139 22.46L154.139 20C152.839 19.18 151.039 18.76 149.279 18.76C145.299 18.76 143.379 20.74 143.379 23.12C143.379 28.32 151.519 26.52 151.519 29.14C151.519 30 150.739 30.64 148.819 30.64C147.139 30.64 145.379 30.04 144.199 29.18L143.099 31.62C144.339 32.58 146.579 33.24 148.799 33.24ZM159.658 33H162.898V21.64H167.378V19H155.178V21.64H159.658V33ZM175.107 33.24C179.087 33.24 181.447 30.96 181.447 26.84V19H178.247V26.72C178.247 29.38 177.107 30.48 175.127 30.48C173.167 30.48 172.007 29.38 172.007 26.72V19H168.767V26.84C168.767 30.96 171.127 33.24 175.107 33.24Z" fill="white"/>
<path d="M61.7857 35.3381H62.7415V41H61.7857V35.3381ZM68.5534 35.3381H69.5092V41H68.4724L65.2648 36.869V41H64.309V35.3381H65.2648L68.5534 39.5663V35.3381ZM72.7892 36.0833C72.5138 36.0833 72.287 36.14 72.1088 36.2534C71.9306 36.3668 71.8415 36.5396 71.8415 36.7718C71.8415 36.9986 71.9306 37.1741 72.1088 37.2983C72.287 37.4171 72.665 37.5467 73.2428 37.6871C73.826 37.8275 74.2634 38.0246 74.555 38.2784C74.852 38.5322 75.0005 38.9075 75.0005 39.4043C75.0005 39.8957 74.8142 40.2953 74.4416 40.6031C74.069 40.9109 73.5803 41.0648 72.9755 41.0648C72.0899 41.0648 71.3042 40.7597 70.6184 40.1495L71.2178 39.4286C71.7902 39.9254 72.3842 40.1738 72.9998 40.1738C73.3076 40.1738 73.5506 40.109 73.7288 39.9794C73.9124 39.8444 74.0042 39.6689 74.0042 39.4529C74.0042 39.2315 73.9178 39.0614 73.745 38.9426C73.5776 38.8184 73.286 38.7077 72.8702 38.6105C72.4544 38.5079 72.1385 38.4161 71.9225 38.3351C71.7065 38.2487 71.5148 38.138 71.3474 38.003C71.0126 37.7492 70.8452 37.3604 70.8452 36.8366C70.8452 36.3128 71.0342 35.9105 71.4122 35.6297C71.7956 35.3435 72.2681 35.2004 72.8297 35.2004C73.1915 35.2004 73.5506 35.2598 73.907 35.3786C74.2634 35.4974 74.5712 35.6648 74.8304 35.8808L74.3201 36.6017C74.1527 36.4505 73.9259 36.3263 73.6397 36.2291C73.3535 36.1319 73.07 36.0833 72.7892 36.0833ZM78.3206 36.2129V41H77.3648V36.2129H75.6476V35.3381H80.0378V36.2129H78.3206ZM81.0707 35.3381H82.0265V41H81.0707V35.3381ZM85.7324 36.2129V41H84.7766V36.2129H83.0594V35.3381H87.4496V36.2129H85.7324ZM89.7542 39.704C90.0134 40.0064 90.3644 40.1576 90.8072 40.1576C91.25 40.1576 91.601 40.0064 91.8602 39.704C92.1194 39.4016 92.249 38.9912 92.249 38.4728V35.3381H93.2048V38.5133C93.2048 39.3287 92.9807 39.9578 92.5325 40.4006C92.0843 40.838 91.5092 41.0567 90.8072 41.0567C90.1052 41.0567 89.5301 40.838 89.0819 40.4006C88.6337 39.9578 88.4096 39.3287 88.4096 38.5133V35.3381H89.3654V38.4728C89.3654 38.9912 89.495 39.4016 89.7542 39.704ZM96.8383 36.2129V41H95.8825V36.2129H94.1653V35.3381H98.5555V36.2129H96.8383ZM103.949 36.2129V41H102.994V36.2129H101.276V35.3381H105.667V36.2129H103.949ZM110.677 35.3381V36.2372H107.655V37.7357H110.369V38.5862H107.655V40.1009H110.774V41H106.7V35.3381H110.677ZM111.999 35.3381H112.955V38.1002L115.547 35.3381H116.762L114.486 37.8167L116.795 41H115.661L113.781 38.5214L112.955 39.4124V41H111.999V35.3381ZM121.947 35.3381H122.903V41H121.866L118.658 36.869V41H117.703V35.3381H118.658L121.947 39.5663V35.3381ZM128.507 36.6746C128.124 36.275 127.652 36.0752 127.09 36.0752C126.528 36.0752 126.053 36.275 125.664 36.6746C125.281 37.0742 125.089 37.5602 125.089 38.1326C125.089 38.6996 125.281 39.1829 125.664 39.5825C126.053 39.9821 126.528 40.1819 127.09 40.1819C127.652 40.1819 128.124 39.9821 128.507 39.5825C128.896 39.1829 129.091 38.6996 129.091 38.1326C129.091 37.5602 128.896 37.0742 128.507 36.6746ZM129.212 40.2224C128.64 40.7786 127.932 41.0567 127.09 41.0567C126.248 41.0567 125.54 40.7786 124.968 40.2224C124.395 39.6608 124.109 38.9642 124.109 38.1326C124.109 37.2956 124.395 36.599 124.968 36.0428C125.54 35.4812 126.248 35.2004 127.09 35.2004C127.932 35.2004 128.64 35.4812 129.212 36.0428C129.785 36.599 130.071 37.2956 130.071 38.1326C130.071 38.9642 129.785 39.6608 129.212 40.2224ZM131.276 41V35.3381H132.232V40.0928H134.816V41H131.276ZM139.74 36.6746C139.357 36.275 138.884 36.0752 138.322 36.0752C137.761 36.0752 137.286 36.275 136.897 36.6746C136.513 37.0742 136.322 37.5602 136.322 38.1326C136.322 38.6996 136.513 39.1829 136.897 39.5825C137.286 39.9821 137.761 40.1819 138.322 40.1819C138.884 40.1819 139.357 39.9821 139.74 39.5825C140.129 39.1829 140.323 38.6996 140.323 38.1326C140.323 37.5602 140.129 37.0742 139.74 36.6746ZM140.445 40.2224C139.872 40.7786 139.165 41.0567 138.322 41.0567C137.48 41.0567 136.773 40.7786 136.2 40.2224C135.628 39.6608 135.342 38.9642 135.342 38.1326C135.342 37.2956 135.628 36.599 136.2 36.0428C136.773 35.4812 137.48 35.2004 138.322 35.2004C139.165 35.2004 139.872 35.4812 140.445 36.0428C141.017 36.599 141.303 37.2956 141.303 38.1326C141.303 38.9642 141.017 39.6608 140.445 40.2224ZM146.429 38.246H147.385V40.1819C146.85 40.7705 146.086 41.0648 145.093 41.0648C144.256 41.0648 143.554 40.7894 142.987 40.2386C142.425 39.6878 142.144 38.9912 142.144 38.1488C142.144 37.3064 142.431 36.6044 143.003 36.0428C143.581 35.4812 144.277 35.2004 145.093 35.2004C145.908 35.2004 146.586 35.438 147.126 35.9132L146.616 36.6422C146.394 36.4532 146.17 36.3236 145.943 36.2534C145.722 36.1778 145.463 36.14 145.166 36.14C144.593 36.14 144.113 36.3263 143.724 36.6989C143.335 37.0661 143.141 37.5521 143.141 38.1569C143.141 38.7563 143.33 39.2396 143.708 39.6068C144.086 39.9686 144.542 40.1495 145.077 40.1495C145.617 40.1495 146.067 40.0334 146.429 39.8012V38.246ZM148.639 35.3381H149.595V41H148.639V35.3381ZM157.306 38.246H158.262V40.1819C157.727 40.7705 156.963 41.0648 155.969 41.0648C155.132 41.0648 154.43 40.7894 153.863 40.2386C153.302 39.6878 153.021 38.9912 153.021 38.1488C153.021 37.3064 153.307 36.6044 153.879 36.0428C154.457 35.4812 155.154 35.2004 155.969 35.2004C156.785 35.2004 157.462 35.438 158.002 35.9132L157.492 36.6422C157.271 36.4532 157.047 36.3236 156.82 36.2534C156.598 36.1778 156.339 36.14 156.042 36.14C155.47 36.14 154.989 36.3263 154.6 36.6989C154.212 37.0661 154.017 37.5521 154.017 38.1569C154.017 38.7563 154.206 39.2396 154.584 39.6068C154.962 39.9686 155.418 40.1495 155.953 40.1495C156.493 40.1495 156.944 40.0334 157.306 39.8012V38.246ZM160.262 39.7121L159.695 41H158.675L161.169 35.3381H162.19L164.685 41H163.664L163.097 39.7121H160.262ZM162.708 38.8292L161.68 36.4964L160.651 38.8292H162.708ZM169.992 37.1768C169.992 38.111 169.584 38.6996 168.769 38.9426L170.251 41H169.036L167.683 39.0965H166.428V41H165.472V35.3381H167.578C168.442 35.3381 169.06 35.4839 169.433 35.7755C169.806 36.0671 169.992 36.5342 169.992 37.1768ZM167.619 38.2298C168.159 38.2298 168.526 38.1461 168.72 37.9787C168.915 37.8113 169.012 37.544 169.012 37.1768C169.012 36.8042 168.912 36.5504 168.712 36.4154C168.512 36.275 168.156 36.2048 167.643 36.2048H166.428V38.2298H167.619ZM172.637 39.704C172.896 40.0064 173.247 40.1576 173.69 40.1576C174.133 40.1576 174.484 40.0064 174.743 39.704C175.002 39.4016 175.132 38.9912 175.132 38.4728V35.3381H176.087V38.5133C176.087 39.3287 175.863 39.9578 175.415 40.4006C174.967 40.838 174.392 41.0567 173.69 41.0567C172.988 41.0567 172.413 40.838 171.964 40.4006C171.516 39.9578 171.292 39.3287 171.292 38.5133V35.3381H172.248V38.4728C172.248 38.9912 172.378 39.4016 172.637 39.704ZM179.721 36.2129V41H178.765V36.2129H177.048V35.3381H181.438V36.2129H179.721Z" fill="white"/>
<defs>
<clipPath id="clip0_2_108">
<rect width="52.8923" height="60" fill="white"/>
</clipPath>
</defs>
</svg>
